<svg width="300" height="305" viewBox="0 0 300 305" fill="none" xmlns="http://www.w3.org/2000/svg">
<rect y="4" width="300" height="300" rx="150" fill="white"/>
<path d="M190.96 196.48L208.96 218.32L186.16 235.84L173.44 220.48C162.24 230.72 148.56 235.84 132.4 235.84C120.56 235.84 109.76 233.28 100 228.16C90.24 223.04 82.56 215.92 76.96 206.8C71.36 197.52 68.56 187.12 68.56 175.6C68.56 166 70.96 156.88 75.76 148.24C80.56 139.6 87.2 132.24 95.68 126.16C88.8 116.56 85.36 107.52 85.36 99.04C85.36 91.04 87.28 83.84 91.12 77.44C94.96 70.88 100.24 65.76 106.96 62.08C113.68 58.24 121.28 56.32 129.76 56.32C140.8 56.32 149.84 58.88 156.88 64C164.08 69.12 169.28 76 172.48 84.64L147.28 98.08C143.76 88.64 138.08 83.92 130.24 83.92C125.76 83.92 122.16 85.28 119.44 88C116.72 90.72 115.36 94.16 115.36 98.32C115.36 100.72 115.84 103.04 116.8 105.28C117.76 107.36 119.28 109.68 121.36 112.24L173.2 174.88L187.12 152.08L209.92 166.48L190.96 196.48ZM134.08 207.52C142.72 207.52 150 204.8 155.92 199.36L112.72 147.04C108.24 150.4 104.8 154.48 102.4 159.28C100 164.08 98.8 169.12 98.8 174.4C98.8 180.96 100.4 186.8 103.6 191.92C106.8 196.88 111.12 200.72 116.56 203.44C122 206.16 127.84 207.52 134.08 207.52Z" fill="#FF5A5F"/>
<circle cx="229" cy="193" r="24" fill="black"/>
</svg>
