<svg width="375" height="76" viewBox="0 0 375 76" fill="none" xmlns="http://www.w3.org/2000/svg">
<path d="M64.2 58.96C60.96 58.96 58.3 58.02 56.22 56.14C54.14 54.22 53.1 51.72 53.1 48.64C53.1 46.6 53.64 44.8 54.72 43.24C55.8 41.68 57.28 40.48 59.16 39.64C61.04 38.8 63.12 38.38 65.4 38.38C68.56 38.38 71.26 38.84 73.5 39.76V38.44C73.5 36.76 72.86 35.4 71.58 34.36C70.34 33.32 68.66 32.8 66.54 32.8C65.1 32.8 63.7 33.14 62.34 33.82C61.02 34.46 59.92 35.32 59.04 36.4L54 32.44C55.48 30.52 57.34 29.04 59.58 28C61.82 26.96 64.26 26.44 66.9 26.44C71.58 26.44 75.14 27.52 77.58 29.68C80.02 31.84 81.24 35 81.24 39.16V58H73.5V54.88H73.02C72.1 56.08 70.88 57.06 69.36 57.82C67.88 58.58 66.16 58.96 64.2 58.96ZM66.06 52.84C68.34 52.84 70.14 52.12 71.46 50.68C72.82 49.2 73.5 47.48 73.5 45.52C71.46 44.56 69.32 44.08 67.08 44.08C63 44.08 60.96 45.6 60.96 48.64C60.96 49.88 61.4 50.9 62.28 51.7C63.16 52.46 64.42 52.84 66.06 52.84ZM88.4728 27.4H95.8528V31.24H96.3328C97.2928 29.76 98.5728 28.6 100.173 27.76C101.813 26.88 103.633 26.44 105.633 26.44C107.793 26.44 109.673 26.96 111.273 28C112.873 29 114.013 30.28 114.693 31.84C115.693 30.24 117.053 28.94 118.773 27.94C120.533 26.94 122.593 26.44 124.953 26.44C128.433 26.44 131.073 27.52 132.873 29.68C134.713 31.8 135.633 34.68 135.633 38.32V58H127.833V39.76C127.833 37.84 127.373 36.36 126.453 35.32C125.573 34.28 124.333 33.76 122.733 33.76C120.693 33.76 119.053 34.58 117.813 36.22C116.613 37.82 116.013 39.94 116.013 42.58V58H108.153V39.76C108.153 37.84 107.673 36.36 106.713 35.32C105.793 34.28 104.473 33.76 102.753 33.76C100.833 33.76 99.2728 34.58 98.0728 36.22C96.9128 37.82 96.3328 39.94 96.3328 42.58V58H88.4728V27.4ZM142.901 27.4H150.281V31.12H150.761C151.601 29.8 152.821 28.7 154.421 27.82C156.021 26.9 157.861 26.44 159.941 26.44C162.701 26.44 165.201 27.14 167.441 28.54C169.721 29.9 171.501 31.82 172.781 34.3C174.061 36.78 174.701 39.58 174.701 42.7C174.701 45.86 174.061 48.68 172.781 51.16C171.501 53.6 169.721 55.52 167.441 56.92C165.201 58.28 162.701 58.96 159.941 58.96C157.861 58.96 156.001 58.52 154.361 57.64C152.761 56.76 151.561 55.66 150.761 54.34H150.281L150.761 58.66V70.96H142.901V27.4ZM158.561 51.7C160.041 51.7 161.421 51.32 162.701 50.56C163.981 49.8 165.001 48.74 165.761 47.38C166.521 46.02 166.901 44.46 166.901 42.7C166.901 40.94 166.521 39.38 165.761 38.02C165.001 36.66 163.981 35.62 162.701 34.9C161.421 34.14 160.041 33.76 158.561 33.76C157.121 33.76 155.761 34.14 154.481 34.9C153.201 35.62 152.181 36.66 151.421 38.02C150.661 39.38 150.281 40.94 150.281 42.7C150.281 44.46 150.661 46.02 151.421 47.38C152.181 48.74 153.201 49.8 154.481 50.56C155.761 51.32 157.121 51.7 158.561 51.7ZM195.098 58.96C192.058 58.96 189.318 58.26 186.878 56.86C184.438 55.46 182.518 53.54 181.118 51.1C179.758 48.62 179.078 45.84 179.078 42.76C179.078 39.84 179.758 37.14 181.118 34.66C182.478 32.14 184.358 30.14 186.758 28.66C189.158 27.18 191.838 26.44 194.798 26.44C197.958 26.44 200.678 27.12 202.958 28.48C205.238 29.84 206.958 31.7 208.118 34.06C209.318 36.42 209.918 39.04 209.918 41.92C209.918 42.84 209.858 43.72 209.738 44.56H186.758C187.158 47 188.118 48.86 189.638 50.14C191.198 51.38 193.058 52 195.218 52C197.018 52 198.558 51.62 199.838 50.86C201.158 50.06 202.198 49 202.958 47.68L209.318 50.8C206.198 56.24 201.458 58.96 195.098 58.96ZM202.358 38.98C202.278 38.02 201.918 37.08 201.278 36.16C200.678 35.2 199.818 34.42 198.698 33.82C197.618 33.18 196.338 32.86 194.858 32.86C192.978 32.86 191.358 33.42 189.998 34.54C188.678 35.62 187.718 37.1 187.118 38.98H202.358ZM215.973 27.4H223.353V31.48H223.833C224.593 30.04 225.773 28.86 227.373 27.94C228.973 26.98 230.733 26.5 232.653 26.5C234.053 26.5 235.333 26.72 236.493 27.16V35.02C235.413 34.62 234.493 34.34 233.733 34.18C233.013 33.98 232.233 33.88 231.393 33.88C229.073 33.88 227.233 34.72 225.873 36.4C224.513 38.08 223.833 40.2 223.833 42.76V58H215.973V27.4ZM252.046 58.96C248.326 58.96 245.306 58.2 242.986 56.68C240.706 55.16 239.106 53.18 238.186 50.74L245.206 47.68C245.846 49.12 246.746 50.22 247.906 50.98C249.106 51.7 250.486 52.06 252.046 52.06C253.486 52.06 254.686 51.84 255.646 51.4C256.606 50.92 257.086 50.16 257.086 49.12C257.086 48.12 256.646 47.38 255.766 46.9C254.886 46.38 253.566 45.92 251.806 45.52L248.206 44.74C245.726 44.14 243.666 43.06 242.026 41.5C240.386 39.9 239.566 37.92 239.566 35.56C239.566 33.8 240.086 32.22 241.126 30.82C242.206 29.42 243.646 28.34 245.446 27.58C247.286 26.82 249.306 26.44 251.506 26.44C257.826 26.44 262.046 28.66 264.166 33.1L257.446 36.04C256.246 33.88 254.326 32.8 251.686 32.8C250.326 32.8 249.246 33.06 248.446 33.58C247.646 34.06 247.246 34.68 247.246 35.44C247.246 36.88 248.606 37.96 251.326 38.68L255.826 39.76C258.866 40.52 261.146 41.68 262.666 43.24C264.226 44.8 265.006 46.72 265.006 49C265.006 50.96 264.426 52.7 263.266 54.22C262.146 55.7 260.586 56.86 258.586 57.7C256.626 58.54 254.446 58.96 252.046 58.96ZM280.352 58.96C277.112 58.96 274.452 58.02 272.372 56.14C270.292 54.22 269.252 51.72 269.252 48.64C269.252 46.6 269.792 44.8 270.872 43.24C271.952 41.68 273.432 40.48 275.312 39.64C277.192 38.8 279.272 38.38 281.552 38.38C284.712 38.38 287.412 38.84 289.652 39.76V38.44C289.652 36.76 289.012 35.4 287.732 34.36C286.492 33.32 284.812 32.8 282.692 32.8C281.252 32.8 279.852 33.14 278.492 33.82C277.172 34.46 276.072 35.32 275.192 36.4L270.152 32.44C271.632 30.52 273.492 29.04 275.732 28C277.972 26.96 280.412 26.44 283.052 26.44C287.732 26.44 291.292 27.52 293.732 29.68C296.172 31.84 297.392 35 297.392 39.16V58H289.652V54.88H289.172C288.252 56.08 287.032 57.06 285.512 57.82C284.032 58.58 282.312 58.96 280.352 58.96ZM282.212 52.84C284.492 52.84 286.292 52.12 287.612 50.68C288.972 49.2 289.652 47.48 289.652 45.52C287.612 44.56 285.472 44.08 283.232 44.08C279.152 44.08 277.112 45.6 277.112 48.64C277.112 49.88 277.552 50.9 278.432 51.7C279.312 52.46 280.572 52.84 282.212 52.84ZM304.625 27.4H312.005V31.24H312.485C313.405 29.76 314.705 28.6 316.385 27.76C318.065 26.88 319.885 26.44 321.845 26.44C325.525 26.44 328.325 27.56 330.245 29.8C332.165 32.04 333.125 35.1 333.125 38.98V58H325.265V39.94C325.265 37.98 324.765 36.46 323.765 35.38C322.765 34.3 321.365 33.76 319.565 33.76C317.445 33.76 315.725 34.58 314.405 36.22C313.125 37.86 312.485 39.92 312.485 42.4V58H304.625V27.4ZM353.683 58.96C350.923 58.96 348.403 58.28 346.123 56.92C343.883 55.52 342.103 53.6 340.783 51.16C339.503 48.68 338.863 45.86 338.863 42.7C338.863 39.58 339.503 36.78 340.783 34.3C342.103 31.82 343.883 29.9 346.123 28.54C348.403 27.14 350.923 26.44 353.683 26.44C355.763 26.44 357.603 26.9 359.203 27.82C360.803 28.7 362.023 29.8 362.863 31.12H363.343L362.863 26.8V15.04H370.663V58H363.343V54.34H362.863C362.063 55.66 360.843 56.76 359.203 57.64C357.603 58.52 355.763 58.96 353.683 58.96ZM355.003 51.7C356.483 51.7 357.863 51.32 359.143 50.56C360.423 49.8 361.443 48.74 362.203 47.38C362.963 46.02 363.343 44.46 363.343 42.7C363.343 40.94 362.963 39.38 362.203 38.02C361.443 36.66 360.423 35.62 359.143 34.9C357.863 34.14 356.483 33.76 355.003 33.76C353.563 33.76 352.203 34.14 350.923 34.9C349.643 35.62 348.623 36.66 347.863 38.02C347.103 39.38 346.723 40.94 346.723 42.7C346.723 44.46 347.103 46.02 347.863 47.38C348.623 48.74 349.643 49.8 350.923 50.56C352.203 51.32 353.563 51.7 355.003 51.7Z" fill="black"/>
<path d="M33.24 49.12L37.74 54.58L32.04 58.96L28.86 55.12C26.06 57.68 22.64 58.96 18.6 58.96C15.64 58.96 12.94 58.32 10.5 57.04C8.06 55.76 6.14 53.98 4.74 51.7C3.34 49.38 2.64 46.78 2.64 43.9C2.64 41.5 3.24 39.22 4.44 37.06C5.64 34.9 7.3 33.06 9.42 31.54C7.7 29.14 6.84 26.88 6.84 24.76C6.84 22.76 7.32 20.96 8.28 19.36C9.24 17.72 10.56 16.44 12.24 15.52C13.92 14.56 15.82 14.08 17.94 14.08C20.7 14.08 22.96 14.72 24.72 16C26.52 17.28 27.82 19 28.62 21.16L22.32 24.52C21.44 22.16 20.02 20.98 18.06 20.98C16.94 20.98 16.04 21.32 15.36 22C14.68 22.68 14.34 23.54 14.34 24.58C14.34 25.18 14.46 25.76 14.7 26.32C14.94 26.84 15.32 27.42 15.84 28.06L28.8 43.72L32.28 38.02L37.98 41.62L33.24 49.12ZM19.02 51.88C21.18 51.88 23 51.2 24.48 49.84L13.68 36.76C12.56 37.6 11.7 38.62 11.1 39.82C10.5 41.02 10.2 42.28 10.2 43.6C10.2 45.24 10.6 46.7 11.4 47.98C12.2 49.22 13.28 50.18 14.64 50.86C16 51.54 17.46 51.88 19.02 51.88Z" fill="#FF5A5F"/>
<circle cx="42" cy="48" r="6" fill="black"/>
</svg>
